<svg id="svg" xmlns="http://www.w3.org/2000/svg" xmlns:xlink="http://www.w3.org/1999/xlink" width="400" height="37.86054326519183" viewBox="0, 0, 400,37.86054326519183"><g id="svgg"><path id="path0" d="M0.000 0.015 C 0.000 0.023,0.268 1.086,0.595 2.377 C 0.923 3.667,1.227 4.870,1.272 5.050 L 1.353 5.377 9.115 5.377 L 16.877 5.377 16.877 20.928 L 16.877 36.479 19.565 36.479 L 22.253 36.479 22.253 20.928 L 22.253 5.377 29.999 5.377 L 37.746 5.377 37.782 5.237 C 37.937 4.643,39.093 0.048,39.093 0.027 C 39.093 0.012,30.297 0.000,19.546 0.000 C 8.796 0.000,0.000 0.007,0.000 0.015 M191.842 7.062 C 185.975 7.455,182.217 10.486,181.547 15.365 C 181.459 16.003,181.445 23.371,181.530 24.046 C 182.223 29.549,186.584 32.618,193.560 32.511 C 199.942 32.413,204.022 29.497,204.845 24.445 C 204.941 23.852,204.995 16.653,204.910 15.719 C 204.383 9.929,199.299 6.561,191.842 7.062 M46.486 10.361 L 46.486 13.367 49.902 13.367 L 53.318 13.367 53.318 22.776 L 53.318 32.185 57.314 32.185 L 61.309 32.185 61.309 22.776 L 61.309 13.367 64.725 13.367 L 68.142 13.367 68.142 10.361 L 68.142 7.356 57.314 7.356 L 46.486 7.356 46.486 10.361 M71.091 19.770 L 71.091 32.185 75.068 32.185 L 79.044 32.185 79.044 27.741 L 79.044 23.298 80.129 23.308 L 81.215 23.317 83.499 27.750 L 85.784 32.183 90.090 32.184 L 94.396 32.185 94.322 32.064 C 94.281 31.997,92.916 29.683,91.289 26.921 C 89.661 24.158,88.306 21.863,88.278 21.819 C 88.228 21.742,88.244 21.731,88.760 21.478 C 91.353 20.207,92.747 17.945,92.747 15.010 C 92.747 10.676,89.888 8.070,84.495 7.488 C 83.416 7.372,82.552 7.357,76.851 7.356 L 71.091 7.356 71.091 19.770 M96.416 15.785 C 96.427 23.348,96.434 24.254,96.489 24.607 C 97.277 29.702,101.408 32.499,108.149 32.502 C 114.841 32.505,118.870 29.689,119.767 24.382 C 119.829 24.016,119.834 23.434,119.845 15.673 L 119.856 7.356 115.879 7.356 L 111.903 7.356 111.893 15.710 L 111.882 24.064 111.797 24.344 C 111.338 25.836,110.069 26.534,107.945 26.461 C 105.921 26.392,104.687 25.490,104.435 23.896 C 104.410 23.736,104.397 20.888,104.397 15.505 L 104.397 7.356 100.400 7.356 L 96.404 7.356 96.416 15.785 M122.319 10.361 L 122.319 13.367 125.735 13.367 L 129.151 13.367 129.151 22.776 L 129.151 32.185 133.147 32.185 L 137.142 32.185 137.142 22.776 L 137.142 13.367 140.558 13.367 L 143.975 13.367 143.975 10.361 L 143.975 7.356 133.147 7.356 L 122.319 7.356 122.319 10.361 M146.924 19.770 L 146.924 32.185 150.919 32.185 L 154.915 32.185 154.915 27.462 L 154.915 22.739 158.294 22.739 L 161.673 22.739 161.673 27.462 L 161.673 32.185 165.649 32.185 L 169.626 32.185 169.626 19.770 L 169.626 7.356 165.649 7.356 L 161.673 7.356 161.673 12.004 L 161.673 16.653 158.294 16.653 L 154.915 16.653 154.915 12.004 L 154.915 7.356 150.919 7.356 L 146.924 7.356 146.924 19.770 M205.369 7.402 C 205.379 7.428,207.618 13.015,210.344 19.817 L 215.300 32.186 219.373 32.176 L 223.447 32.167 228.385 19.845 C 231.102 13.068,233.334 7.486,233.347 7.440 L 233.369 7.356 228.949 7.356 L 224.529 7.356 221.977 15.747 C 220.574 20.363,219.414 24.152,219.399 24.168 C 219.385 24.184,219.168 23.529,218.917 22.712 C 218.667 21.895,217.507 18.110,216.340 14.300 L 214.218 7.374 209.784 7.365 C 206.241 7.357,205.354 7.365,205.369 7.402 M235.826 19.770 L 235.826 32.185 245.571 32.185 L 255.316 32.185 255.316 29.292 L 255.316 26.398 249.547 26.398 L 243.779 26.398 243.779 24.288 L 243.779 22.179 247.792 22.179 L 251.806 22.179 251.806 19.584 L 251.806 16.989 247.792 16.989 L 243.779 16.989 243.779 15.140 L 243.779 13.292 249.379 13.292 L 254.980 13.292 254.980 10.324 L 254.980 7.356 245.403 7.356 L 235.826 7.356 235.826 19.770 M258.938 19.770 L 258.938 32.185 262.914 32.185 L 266.891 32.185 266.891 27.741 L 266.891 23.298 267.975 23.308 L 269.059 23.317 271.344 27.750 L 273.630 32.183 277.936 32.184 L 282.243 32.185 282.168 32.064 C 282.127 31.997,280.772 29.699,279.156 26.958 C 277.540 24.216,276.185 21.920,276.145 21.854 L 276.073 21.736 276.532 21.516 C 279.242 20.217,280.667 17.843,280.583 14.768 C 280.467 10.560,277.637 8.059,272.342 7.488 C 271.263 7.372,270.399 7.357,264.697 7.356 L 258.938 7.356 258.938 19.770 M290.675 10.361 L 290.675 13.367 294.110 13.367 L 297.545 13.367 297.545 22.776 L 297.545 32.185 301.540 32.185 L 305.535 32.185 305.535 22.776 L 305.535 13.367 308.952 13.367 L 312.368 13.367 312.368 10.361 L 312.368 7.356 301.522 7.356 L 290.675 7.356 290.675 10.361 M315.318 19.770 L 315.318 32.185 319.294 32.185 L 323.271 32.185 323.271 27.742 L 323.271 23.299 324.350 23.299 L 325.428 23.299 327.719 27.741 L 330.010 32.184 334.318 32.184 L 338.625 32.185 338.571 32.101 C 338.541 32.055,337.185 29.757,335.557 26.995 C 333.929 24.233,332.565 21.920,332.525 21.854 L 332.453 21.736 332.912 21.516 C 335.622 20.217,337.047 17.843,336.963 14.768 C 336.848 10.561,334.016 8.059,328.722 7.488 C 327.643 7.372,326.779 7.357,321.077 7.356 L 315.318 7.356 315.318 19.770 M341.417 19.770 L 341.417 32.185 345.393 32.185 L 349.370 32.185 349.370 19.770 L 349.370 7.356 345.393 7.356 L 341.417 7.356 341.417 19.770 M354.597 19.770 L 354.597 32.185 361.203 32.185 C 365.337 32.185,368.023 32.171,368.381 32.147 C 373.446 31.807,376.186 29.966,376.798 26.491 C 377.397 23.091,375.915 20.570,372.713 19.545 C 372.412 19.448,372.133 19.358,372.093 19.343 C 372.039 19.324,372.144 19.258,372.528 19.072 C 374.234 18.244,375.123 17.128,375.477 15.371 C 375.592 14.803,375.602 13.273,375.495 12.770 C 374.862 9.801,372.174 7.962,367.777 7.488 C 366.700 7.372,365.834 7.357,360.245 7.356 L 354.597 7.356 354.597 19.770 M380.510 19.770 L 380.510 32.185 390.255 32.185 L 400.000 32.185 400.000 29.292 L 400.000 26.398 394.231 26.398 L 388.463 26.398 388.463 24.288 L 388.463 22.179 392.476 22.179 L 396.490 22.179 396.490 19.584 L 396.490 16.989 392.476 16.989 L 388.463 16.989 388.463 15.140 L 388.463 13.292 394.063 13.292 L 399.664 13.292 399.664 10.324 L 399.664 7.356 390.087 7.356 L 380.510 7.356 380.510 19.770 M0.697 11.267 C 0.334 12.699,0.027 13.909,0.014 13.955 L -0.009 14.039 4.121 14.039 L 8.252 14.039 8.252 25.950 C 8.252 32.501,8.264 37.861,8.278 37.861 C 8.293 37.861,9.503 37.546,10.967 37.162 L 13.628 36.464 13.628 22.563 L 13.628 8.662 7.492 8.662 L 1.356 8.662 0.697 11.267 M25.464 22.562 L 25.464 36.461 28.069 37.144 C 29.501 37.520,30.711 37.837,30.757 37.848 L 30.841 37.869 30.841 25.954 L 30.841 14.039 34.967 14.039 C 37.236 14.039,39.093 14.028,39.093 14.015 C 39.093 13.988,38.040 9.815,37.854 9.101 L 37.739 8.662 31.602 8.662 L 25.464 8.662 25.464 22.562 M193.839 12.697 C 195.753 12.878,196.646 13.732,196.920 15.645 C 196.982 16.075,197.016 22.234,196.962 23.255 C 196.815 26.036,195.770 27.090,193.167 27.083 C 190.977 27.076,189.935 26.272,189.557 24.299 C 189.461 23.798,189.404 16.747,189.489 15.869 C 189.722 13.450,191.109 12.438,193.839 12.697 M82.774 12.920 C 84.150 13.098,84.716 13.677,84.836 15.031 C 84.964 16.464,84.608 17.432,83.796 17.858 C 83.220 18.161,82.695 18.219,80.547 18.220 L 79.044 18.221 79.044 15.551 L 79.044 12.882 80.771 12.883 C 81.721 12.883,82.622 12.900,82.774 12.920 M270.961 12.968 C 272.141 13.257,272.564 13.771,272.682 15.056 C 272.814 16.501,272.414 17.506,271.549 17.901 C 270.956 18.173,270.494 18.219,268.394 18.220 L 266.891 18.221 266.891 15.549 L 266.891 12.876 268.804 12.892 C 270.388 12.906,270.760 12.919,270.961 12.968 M327.099 12.939 C 328.418 13.134,328.942 13.700,329.060 15.056 C 329.188 16.517,328.795 17.505,327.929 17.901 C 327.336 18.173,326.874 18.219,324.774 18.220 L 323.271 18.221 323.271 15.551 L 323.271 12.882 324.993 12.882 C 326.344 12.882,326.798 12.894,327.099 12.939 M366.676 13.102 C 368.104 13.334,368.626 14.115,368.363 15.622 C 368.127 16.973,367.497 17.213,364.195 17.213 L 362.401 17.213 362.401 15.118 L 362.401 13.023 364.408 13.041 C 365.641 13.052,366.515 13.076,366.676 13.102 M367.054 22.218 C 368.566 22.387,369.099 23.009,369.036 24.531 C 368.996 25.492,368.716 26.020,368.073 26.344 C 367.469 26.647,366.958 26.696,364.389 26.697 L 362.401 26.697 362.401 24.438 L 362.401 22.179 364.549 22.179 C 365.822 22.179,366.843 22.195,367.054 22.218 " stroke="none" fill="#000000" fill-rule="evenodd"></path></g></svg>